<?xml version="1.0" standalone="no"?>
<!DOCTYPE svg PUBLIC "-//W3C//DTD SVG 20010904//EN"
 "http://www.w3.org/TR/2001/REC-SVG-20010904/DTD/svg10.dtd">
<svg version="1.0" xmlns="http://www.w3.org/2000/svg"
 width="612.000000pt" height="612.000000pt" viewBox="0 0 612.000000 612.000000"
 preserveAspectRatio="xMidYMid meet">

<g transform="translate(0.000000,612.000000) scale(0.100000,-0.100000)"
fill="#000000" stroke="none">
<path d="M2835 6109 c-479 -39 -923 -177 -1318 -410 -707 -418 -1212 -1085
-1416 -1869 -68 -260 -95 -481 -95 -770 0 -302 23 -484 94 -767 194 -765 698
-1439 1383 -1852 1020 -615 2304 -581 3287 87 262 178 495 393 683 629 320
403 539 895 621 1393 42 255 53 596 28 825 -68 603 -289 1137 -668 1610 -99
124 -333 360 -427 432 -34 26 -64 50 -67 53 -3 3 -39 30 -80 60 -578 424
-1319 636 -2025 579z m915 -1669 l0 -690 690 0 690 0 0 -690 0 -690 -690 0
-690 0 0 -690 0 -690 -690 0 -690 0 0 690 0 690 -690 0 -690 0 0 690 0 690
690 0 690 0 0 690 0 690 690 0 690 0 0 -690z"/>
</g>
</svg>
