<?xml version="1.0" standalone="no"?>
<!DOCTYPE svg PUBLIC "-//W3C//DTD SVG 20010904//EN"
 "http://www.w3.org/TR/2001/REC-SVG-20010904/DTD/svg10.dtd">
<svg version="1.0" xmlns="http://www.w3.org/2000/svg"
 width="1080.000000pt" height="1080.000000pt" viewBox="0 0 1080.000000 1080.000000"
 preserveAspectRatio="xMidYMid meet">

<g transform="translate(0.000000,1080.000000) scale(0.100000,-0.100000)"
fill="#000000" stroke="none">
<path d="M7280 9544 c-160 -34 -290 -95 -377 -177 -93 -88 -228 -316 -275
-467 -22 -71 -23 -90 -23 -330 0 -140 4 -308 9 -372 7 -108 9 -117 29 -120 12
-2 40 -28 63 -58 23 -30 48 -55 55 -55 10 0 17 29 26 103 7 57 24 163 39 235
23 115 26 147 21 246 -9 158 1 190 77 266 102 101 300 190 481 214 156 21 437
33 511 21 134 -21 236 -64 296 -127 44 -46 65 -91 73 -164 11 -86 25 -131 56
-174 20 -27 38 -78 59 -160 34 -136 57 -203 76 -225 10 -12 33 -298 34 -422 0
-10 4 -18 10 -18 9 0 6 106 -10 314 -7 97 -6 111 9 127 46 49 46 54 12 274
-57 369 -116 542 -244 713 -64 86 -245 260 -302 291 -22 11 -51 30 -65 41 -23
19 -33 20 -84 12 -43 -7 -88 -5 -179 9 -144 21 -287 23 -377 3z"/>
<path d="M2602 8785 c-83 -18 -187 -75 -420 -229 -205 -136 -356 -249 -435
-325 -141 -135 -212 -332 -227 -631 -6 -119 -16 -197 -35 -280 -24 -99 -26
-129 -22 -220 3 -59 14 -136 26 -175 11 -38 29 -126 41 -195 25 -149 62 -233
148 -335 97 -114 97 -115 87 -129 -6 -8 -46 -54 -89 -102 -93 -105 -115 -148
-116 -225 0 -75 11 -83 123 -89 88 -5 91 -6 107 -35 9 -17 35 -39 58 -51 28
-13 54 -38 76 -70 19 -28 58 -76 87 -108 l52 -57 -22 -262 c-12 -144 -21 -277
-21 -294 l0 -33 669 0 670 0 5 43 c12 91 26 250 36 410 11 178 18 223 51 325
12 35 19 76 17 91 l-4 27 90 -28 c180 -56 232 -23 146 91 -23 30 -40 61 -38
69 2 8 35 31 73 51 125 64 215 139 215 178 0 12 -10 13 -67 6 -97 -12 -175 -8
-210 10 -80 42 -153 130 -153 184 0 48 9 61 115 175 52 56 109 128 127 162
l33 61 0 160 c-1 200 -11 242 -109 440 -41 83 -79 166 -85 185 -6 19 -15 100
-20 180 -11 173 -31 241 -127 435 -85 172 -171 287 -266 357 -51 38 -86 74
-116 120 -45 69 -77 98 -131 116 -46 16 -260 14 -339 -3z m273 -485 c96 -15
212 -79 281 -153 123 -132 184 -283 208 -512 8 -75 17 -139 20 -142 3 -3 13 0
21 7 32 27 40 -3 40 -155 0 -131 -2 -146 -21 -172 -17 -22 -29 -28 -57 -27
-39 1 -38 3 -52 -96 -19 -137 -74 -269 -150 -360 -28 -34 -35 -50 -35 -86 0
-37 -10 -59 -66 -144 -36 -55 -75 -126 -86 -158 -26 -72 -34 -193 -18 -264 13
-56 56 -150 90 -198 11 -15 20 -35 20 -42 0 -8 -28 -51 -62 -95 -95 -121 -212
-292 -242 -350 -14 -28 -30 -54 -34 -57 -5 -3 -33 38 -62 92 -82 151 -177 308
-247 409 -61 90 -63 95 -63 157 0 43 -8 85 -25 129 -22 59 -23 71 -14 125 9
52 8 71 -12 144 -12 46 -25 130 -28 189 -6 106 -7 106 -47 155 -59 70 -104
147 -104 176 0 16 9 32 25 42 30 20 32 49 10 181 -28 170 -16 280 38 360 86
127 97 150 119 248 l22 99 31 -6 c16 -4 49 -20 73 -37 43 -31 91 -37 100 -11
5 16 -90 60 -150 68 -28 4 -48 12 -48 19 0 7 11 55 24 107 42 165 98 250 204
306 106 56 185 70 297 52z"/>
<path d="M2946 7819 c-52 -13 -137 -60 -133 -73 2 -6 18 -12 35 -14 23 -2 42
5 71 28 31 25 51 33 97 37 52 4 66 1 117 -25 56 -30 74 -30 40 0 -52 45 -152
66 -227 47z"/>
<path d="M2740 7549 c-16 -92 -9 -159 24 -237 14 -34 26 -70 26 -81 0 -11 -21
-38 -47 -62 -41 -36 -43 -39 -15 -23 40 22 72 64 72 92 0 11 -12 45 -26 76
-32 71 -40 146 -24 231 7 36 10 68 7 71 -3 3 -10 -27 -17 -67z"/>
<path d="M2307 6611 c49 -46 171 -112 259 -143 91 -31 219 -40 291 -19 68 19
277 170 260 187 -3 4 -21 -5 -39 -20 -153 -124 -223 -156 -346 -156 -118 0
-228 40 -373 136 -76 50 -98 57 -52 15z"/>
<path d="M5185 8591 c-94 -17 -168 -77 -214 -171 l-26 -55 -3 -412 -3 -413
-393 0 c-451 0 -462 -2 -544 -75 -76 -68 -97 -119 -96 -235 1 -83 4 -102 28
-148 36 -71 95 -126 164 -154 55 -22 68 -23 449 -26 l392 -3 3 -407 c3 -400 3
-408 26 -457 26 -56 81 -118 127 -143 76 -40 211 -43 299 -7 48 20 113 80 136
125 45 89 50 138 50 524 l0 366 353 0 c195 0 381 5 417 11 117 18 184 66 231
164 25 52 29 72 29 146 0 52 -6 104 -16 132 -19 55 -83 126 -145 159 -44 23
-47 23 -456 26 l-412 3 -3 402 c-3 392 -4 403 -26 459 -28 69 -95 141 -156
167 -50 22 -153 33 -211 22z"/>
<path d="M7920 8501 c-134 -43 -151 -59 -116 -106 13 -19 16 -18 92 17 44 20
114 44 157 53 91 18 127 12 197 -34 24 -17 46 -28 48 -26 10 10 -53 75 -97 98
-68 38 -163 37 -281 -2z"/>
<path d="M7175 8430 c-71 -8 -94 -19 -129 -61 -28 -33 -76 -121 -76 -139 0
-23 27 -7 60 34 60 77 95 90 240 94 93 2 139 -1 180 -13 97 -29 107 -29 120
-5 24 44 -15 64 -165 85 -107 16 -136 16 -230 5z"/>
<path d="M8556 8219 c-31 -25 -33 -44 -5 -84 45 -67 47 -107 3 -79 -32 21 -31
8 1 -18 19 -15 25 -29 25 -58 0 -21 -3 -45 -6 -54 -11 -28 -24 -17 -24 18 0
19 -4 38 -10 41 -6 4 -10 -8 -10 -29 0 -43 8 -66 25 -66 25 0 36 30 41 111 4
76 2 86 -21 121 -32 48 -32 71 3 97 15 11 22 21 16 21 -6 0 -23 -9 -38 -21z"/>
<path d="M6611 8031 c-9 -6 -5 -10 15 -13 16 -3 38 -8 49 -12 17 -7 17 -5 -4
13 -25 23 -39 25 -60 12z"/>
<path d="M6669 7965 c-15 -25 -8 -162 11 -213 11 -29 20 -63 20 -76 0 -13 6
-29 14 -35 20 -16 78 -10 84 9 4 12 2 13 -9 3 -35 -33 -79 -4 -79 52 0 14 -6
36 -12 48 -7 12 -15 67 -18 122 -3 55 -8 96 -11 90z"/>
<path d="M6776 7873 c9 -90 50 -284 68 -327 25 -60 31 -35 8 36 -25 76 -49
194 -58 282 -4 37 -11 66 -15 66 -5 0 -6 -26 -3 -57z"/>
<path d="M8567 7865 c-15 -19 -24 -35 -19 -35 14 0 54 48 51 59 -2 6 -17 -5
-32 -24z"/>
<path d="M6725 7860 c-8 -16 -15 -37 -15 -46 0 -22 48 -104 61 -104 5 0 -2 17
-16 37 -28 43 -32 88 -9 121 8 12 10 22 5 22 -6 0 -17 -13 -26 -30z"/>
<path d="M6940 7386 c0 -13 71 -99 115 -139 82 -75 457 -273 567 -300 197 -49
399 13 574 177 117 109 237 260 195 244 -5 -1 -28 -28 -50 -58 -62 -83 -188
-206 -261 -255 -129 -86 -311 -123 -440 -91 -71 18 -315 135 -450 216 -86 51
-172 127 -213 187 -23 35 -37 42 -37 19z"/>
<path d="M6952 6992 c-29 -29 -36 -62 -29 -136 13 -132 79 -347 260 -836 107
-292 212 -601 307 -907 l54 -173 528 0 528 0 -5 493 c-3 270 -10 555 -15 632
-6 77 -12 172 -15 210 -3 39 -9 138 -14 220 -10 153 -27 237 -63 310 -22 43
-56 85 -70 85 -4 0 -8 -33 -8 -74 0 -134 -17 -224 -60 -311 -21 -44 -46 -100
-54 -125 -21 -61 -51 -95 -176 -198 -75 -63 -119 -109 -155 -161 -27 -41 -58
-79 -68 -85 -22 -13 -30 -3 -114 133 -32 51 -72 105 -90 118 -18 14 -74 40
-125 59 -135 50 -162 70 -275 196 -229 255 -259 308 -312 543 l-7 29 -22 -22z"/>
<path d="M6586 6742 c-84 -46 -121 -94 -159 -210 -35 -105 -42 -227 -28 -451
6 -96 9 -176 7 -179 -3 -2 -26 -1 -51 2 -55 9 -57 20 -16 111 18 39 26 67 20
71 -13 7 -10 12 -43 -64 -37 -83 -38 -112 -6 -129 14 -7 42 -13 63 -13 20 0
37 -3 38 -7 34 -378 35 -394 17 -421 -37 -56 -42 -89 -19 -135 12 -23 28 -51
37 -62 14 -19 16 -19 28 -3 7 10 27 21 45 24 38 8 38 23 6 217 -4 25 10 43
118 155 68 70 126 138 129 150 10 37 -20 61 -97 77 -38 8 -94 15 -123 15 -47
0 -53 3 -62 26 -13 33 -13 384 0 493 18 156 46 218 143 320 27 28 43 51 35 51
-7 0 -44 -17 -82 -38z m84 -893 c70 -12 89 -29 68 -61 -22 -34 -210 -229 -215
-224 -4 4 -32 259 -33 294 0 15 62 12 180 -9z m-206 -529 l5 -55 -24 40 c-27
44 -31 75 -13 108 11 22 12 21 19 -8 4 -16 9 -55 13 -85z"/>
<path d="M8670 6693 c0 -5 30 -37 66 -73 122 -121 225 -277 258 -389 33 -113
12 -228 -45 -251 -70 -29 -116 -136 -106 -244 3 -34 21 -119 39 -191 25 -99
37 -131 51 -133 10 -2 17 3 17 12 0 9 7 16 15 16 8 0 15 -7 15 -15 0 -15 25
-21 33 -7 3 4 -6 49 -19 100 -30 119 -48 253 -39 299 8 45 46 83 82 83 31 0
133 -44 133 -58 0 -4 -26 -14 -57 -20 -124 -27 -159 -60 -129 -123 9 -19 52
-79 96 -134 86 -107 130 -183 130 -225 0 -15 -13 -105 -30 -201 -33 -192 -35
-208 -21 -193 10 9 71 348 71 388 0 64 -18 94 -184 310 -72 94 -61 120 66 153
46 12 68 22 68 33 1 27 92 -82 122 -146 28 -61 71 -227 83 -329 4 -30 13 -60
21 -66 11 -9 14 -8 14 5 0 19 13 20 40 4 10 -7 22 -9 26 -5 10 10 -43 274 -71
360 -13 37 -37 89 -54 116 -36 56 -128 146 -186 183 -22 14 -45 32 -51 39 -6
8 -16 57 -23 109 -32 251 -165 473 -337 563 -71 37 -94 44 -94 30z"/>
<path d="M3810 5968 c1 -7 44 -45 98 -85 53 -39 126 -97 161 -129 74 -68 79
-59 -69 -134 -182 -92 -181 -124 5 -180 22 -7 53 -19 69 -27 25 -13 28 -19 23
-51 -3 -21 -41 -122 -86 -226 -70 -165 -88 -216 -65 -194 3 4 44 94 90 202 52
121 84 208 84 230 0 44 -20 59 -125 92 -44 14 -87 29 -95 34 -27 17 2 42 112
100 163 85 164 87 86 160 -61 56 -269 220 -280 220 -5 0 -8 -6 -8 -12z"/>
<path d="M6110 5823 c-28 -43 -65 -107 -83 -143 -29 -58 -32 -73 -31 -150 2
-116 15 -259 24 -265 18 -11 21 92 6 152 -37 141 -19 202 117 415 21 33 33 59
27 63 -5 3 -33 -29 -60 -72z"/>
<path d="M9600 5777 c0 -106 15 -156 105 -347 95 -200 132 -326 150 -511 5
-42 3 -74 -4 -87 -13 -25 1 -38 19 -17 8 9 11 46 9 107 -2 82 1 104 28 183 53
152 67 267 60 504 -5 200 -10 241 -28 241 -5 0 -6 -37 -2 -87 14 -158 9 -400
-10 -490 -20 -95 -59 -223 -63 -208 -45 167 -67 225 -135 367 -85 177 -109
258 -109 366 0 34 -4 62 -10 62 -6 0 -10 -34 -10 -83z"/>
<path d="M1456 5826 c-68 -23 -88 -39 -79 -62 2 -6 57 -40 121 -74 167 -90
207 -115 207 -130 0 -7 -52 -48 -115 -91 -63 -43 -139 -100 -167 -126 -45 -41
-53 -54 -53 -83 0 -22 31 -104 86 -225 94 -208 205 -468 250 -585 26 -67 29
-72 32 -43 4 37 -52 178 -222 561 -68 154 -116 275 -116 293 0 41 43 81 202
190 65 45 123 90 129 101 15 28 -16 51 -182 138 -79 41 -144 79 -144 85 0 5
31 19 69 30 38 12 71 26 74 33 5 17 -14 15 -92 -12z"/>
<path d="M6218 5483 c-73 -159 -73 -161 -72 -356 1 -98 5 -181 8 -185 17 -16
21 25 12 139 -11 156 0 221 64 368 31 71 44 111 36 111 -7 0 -29 -35 -48 -77z"/>
<path d="M806 5512 c-3 -5 19 -85 49 -178 112 -343 181 -677 172 -826 -5 -80
1 -106 18 -78 15 24 6 229 -15 335 -29 153 -100 423 -155 595 -47 146 -58 170
-69 152z"/>
<path d="M4264 5324 c3 -33 8 -102 11 -154 10 -167 17 -230 26 -230 22 0 -7
430 -30 438 -11 4 -12 -7 -7 -54z"/>
<path d="M4602 5108 c-29 -79 -52 -149 -52 -155 1 -38 22 2 67 125 28 75 54
145 58 155 5 11 3 17 -7 17 -8 0 -33 -53 -66 -142z"/>
<path d="M6460 5219 c-112 -45 -136 -206 -40 -263 16 -9 41 -16 57 -15 l28 1
-33 11 c-18 6 -47 23 -64 39 -28 26 -30 32 -26 81 5 64 29 100 83 127 34 16
49 18 93 11 72 -11 102 -40 102 -99 0 -81 -34 -127 -118 -159 l-37 -14 48 4
c27 3 57 13 69 23 51 46 74 160 42 209 -30 46 -140 69 -204 44z"/>
<path d="M6670 5202 c0 -5 8 -16 18 -26 26 -23 44 -89 36 -132 -4 -20 -20 -52
-36 -70 -21 -24 -26 -34 -15 -34 26 0 65 57 72 104 8 50 -6 101 -36 140 -20
26 -39 34 -39 18z"/>
<path d="M6315 5028 c13 -43 41 -83 61 -87 18 -3 17 -2 -3 21 -13 13 -28 38
-34 56 -12 36 -34 45 -24 10z"/>
<path d="M1351 4918 c-59 -296 -78 -510 -62 -694 11 -124 21 -168 35 -146 3 6
1 44 -5 84 -19 121 -6 406 25 583 15 83 30 167 33 188 9 58 -14 45 -26 -15z"/>
<path d="M9828 4625 c-70 -56 -78 -64 -78 -84 0 -10 8 -29 18 -41 17 -21 22
-22 52 -12 18 7 53 12 76 12 98 0 127 117 38 150 -41 16 -60 12 -106 -25z"/>
<path d="M2177 4633 c-4 -3 -7 -288 -7 -633 0 -473 3 -629 12 -638 19 -19 163
-16 182 4 14 13 16 63 16 387 0 214 4 367 9 361 5 -5 45 -175 89 -378 48 -218
86 -372 94 -377 20 -13 92 -11 110 4 10 8 41 131 92 367 89 408 85 392 97 385
5 -4 9 -161 9 -380 0 -331 2 -374 16 -379 23 -9 157 -7 172 2 10 7 12 142 10
643 l-3 634 -127 3 -126 3 -10 -33 c-6 -18 -47 -199 -92 -403 -86 -390 -88
-400 -95 -394 -2 3 -43 180 -90 394 -47 215 -90 400 -95 413 -9 21 -14 22
-133 22 -68 0 -127 -3 -130 -7z"/>
<path d="M5828 4630 c-51 -16 -94 -49 -118 -92 l-25 -43 -3 -465 c-4 -511 -1
-548 49 -605 50 -56 102 -70 269 -70 167 0 219 14 269 71 42 47 52 95 49 231
l-3 118 -97 3 -98 3 0 -75 c0 -76 -12 -124 -33 -138 -7 -4 -44 -8 -84 -8 -80
0 -99 10 -108 63 -3 18 -5 199 -3 404 4 438 -5 408 113 408 100 0 108 -8 113
-125 l4 -90 100 0 100 0 -4 138 c-3 124 -5 141 -28 182 -17 29 -41 53 -70 70
-42 23 -55 25 -205 27 -88 1 -172 -2 -187 -7z"/>
<path d="M5141 4474 c-12 -15 -21 -39 -21 -54 0 -25 -13 -35 -122 -98 -111
-64 -124 -69 -142 -56 -52 36 -116 -2 -116 -69 0 -29 6 -41 30 -59 l30 -22 0
-143 c0 -89 -4 -143 -10 -143 -5 0 -19 -9 -30 -20 -23 -23 -28 -91 -7 -108 30
-25 63 -30 94 -15 31 15 33 14 150 -54 112 -65 118 -70 124 -106 7 -46 24 -64
66 -73 27 -5 37 -1 64 25 23 23 30 38 26 56 -4 23 7 31 118 95 120 69 123 70
156 56 60 -25 109 7 109 73 0 30 -29 71 -50 71 -6 0 -10 54 -10 143 l0 143 30
22 c59 44 28 142 -45 142 -16 0 -36 -6 -44 -14 -14 -13 -31 -6 -139 55 -97 56
-122 75 -122 92 0 12 -9 37 -20 55 -17 27 -25 32 -59 32 -31 0 -44 -6 -60 -26z
m103 -36 c17 -50 -42 -89 -78 -52 -19 19 -21 55 -4 72 7 7 26 12 43 10 22 -2
32 -10 39 -30z m-66 -177 l-3 -85 -65 -37 c-36 -21 -71 -38 -78 -38 -7 -1 -42
16 -77 37 -54 31 -65 42 -65 64 0 23 14 34 121 96 107 62 124 69 146 59 23
-10 24 -14 21 -96z m208 38 c113 -64 124 -73 124 -99 0 -25 -9 -34 -71 -69
l-70 -41 -80 46 -79 46 0 78 c0 69 2 79 23 93 12 9 24 16 26 16 2 1 59 -31
127 -70z m-538 -61 c22 -22 15 -67 -12 -80 -31 -14 -53 -5 -68 27 -9 21 -8 28
7 45 20 22 55 26 73 8z m777 -12 c13 -19 14 -29 6 -45 -25 -45 -91 -33 -91 17
0 54 56 72 85 28z m-357 -110 c34 -21 60 -42 57 -46 -3 -4 -32 -24 -65 -43
l-60 -36 -70 42 -69 41 67 43 c37 23 69 41 72 40 3 -1 33 -19 68 -41z m-320
-6 l62 -35 0 -95 0 -95 -70 -38 c-60 -33 -72 -36 -90 -25 -19 12 -20 23 -20
154 0 135 1 142 23 157 12 9 24 15 27 14 3 -1 33 -18 68 -37z m622 -134 c0
-140 0 -143 -24 -155 -21 -12 -31 -9 -95 29 l-71 42 0 87 0 87 72 41 c67 38
73 40 95 26 22 -15 23 -20 23 -157z m-447 29 l67 -39 0 -84 0 -84 -47 28 c-27
15 -60 35 -75 43 -27 15 -28 19 -28 99 0 46 4 82 8 80 5 -1 38 -21 75 -43z
m237 -38 c0 -68 -3 -84 -17 -93 -10 -6 -44 -25 -75 -43 l-58 -32 0 83 0 83 68
42 c37 23 70 42 75 42 4 1 7 -36 7 -82z m-255 -149 l74 -43 1 -83 c0 -78 -1
-83 -24 -93 -21 -10 -39 -3 -145 57 -114 65 -121 71 -121 101 0 28 6 35 63 67
34 19 65 35 70 36 4 0 41 -19 82 -42z m336 5 c62 -34 69 -41 69 -68 -1 -28 -9
-35 -122 -98 -112 -64 -122 -68 -149 -56 -28 11 -29 13 -29 89 l0 78 78 46
c42 25 79 45 81 46 2 0 34 -17 72 -37z m-593 -35 c17 -17 15 -54 -4 -72 -21
-21 -40 -20 -64 4 -24 24 -25 43 -4 64 18 19 55 21 72 4z m782 -8 c24 -45 -25
-94 -69 -71 -23 13 -29 59 -9 79 20 20 66 15 78 -8z m-396 -216 c21 -20 20
-43 -1 -66 -31 -35 -83 -12 -83 37 0 40 54 59 84 29z"/>
<path d="M3262 3918 l3 -563 290 -3 c160 -1 300 0 313 3 21 5 22 10 22 105 l0
100 -210 0 -210 0 0 125 0 125 163 2 162 3 0 95 0 95 -162 3 -163 2 0 130 0
130 208 2 207 3 0 100 0 100 -313 3 -312 2 2 -562z"/>
<path d="M4067 4474 c-4 -4 -7 -256 -7 -560 l0 -554 25 -6 c45 -11 447 3 488
17 48 16 103 76 117 129 7 27 10 172 8 438 l-3 397 -25 43 c-15 27 -42 54 -70
70 -45 27 -46 27 -285 30 -132 2 -243 0 -248 -4z m409 -218 c18 -14 19 -31 22
-308 2 -161 0 -307 -3 -325 -10 -55 -26 -63 -131 -63 l-94 0 0 355 0 355 93 0
c65 0 99 -4 113 -14z"/>
<path d="M6497 4473 c-4 -3 -7 -253 -7 -553 0 -457 2 -549 14 -559 9 -8 46
-11 103 -9 l88 3 3 228 2 227 110 0 110 0 0 -224 c0 -195 2 -225 16 -230 23
-9 167 -7 182 2 10 7 12 126 10 563 l-3 554 -100 0 -100 0 -3 -227 -2 -228
-110 0 -110 0 0 230 0 230 -98 0 c-54 0 -102 -3 -105 -7z"/>
<path d="M7540 4458 c-18 -45 -270 -1083 -266 -1095 7 -18 171 -18 183 -1 4 7
19 58 34 113 l25 100 157 3 156 3 10 -38 c5 -21 18 -69 27 -108 10 -38 22 -73
28 -77 15 -10 158 -10 174 0 9 6 -20 137 -125 563 l-138 554 -128 3 c-124 3
-127 2 -137 -20z m185 -459 c25 -107 47 -204 50 -216 5 -23 4 -23 -100 -23
-58 0 -105 4 -105 9 0 11 88 400 96 420 2 8 7 12 9 9 3 -2 25 -92 50 -199z"/>
<path d="M8227 4474 c-4 -4 -7 -256 -7 -560 0 -494 2 -552 16 -558 23 -9 167
-7 182 2 10 7 12 126 10 563 l-3 554 -95 3 c-53 1 -99 0 -103 -4z"/>
<path d="M8607 4474 c-4 -4 -7 -256 -7 -560 0 -494 2 -552 16 -558 29 -11 160
-6 172 6 9 9 12 95 13 323 l1 310 154 -315 c85 -173 160 -318 167 -322 16 -10
129 -10 145 0 10 7 12 126 10 563 l-3 554 -90 0 -90 0 -5 -320 -5 -320 -160
320 -160 320 -75 3 c-42 1 -79 0 -83 -4z"/>
<path d="M9772 4247 c-6 -74 -20 -161 -31 -197 -12 -36 -21 -76 -20 -90 l0
-25 15 28 c28 52 55 182 61 300 8 164 -11 152 -25 -16z"/>
<path d="M1017 4173 c-18 -199 -29 -450 -25 -615 2 -154 1 -184 -10 -175 -28
23 -178 215 -230 295 -93 143 -141 265 -178 455 -10 52 -22 87 -29 87 -23 0
22 -211 75 -348 49 -127 167 -302 325 -484 33 -37 57 -75 59 -93 3 -16 10 -66
16 -110 6 -44 20 -128 31 -187 l20 -108 -41 -51 c-63 -80 -66 -128 -12 -213
17 -26 33 -65 37 -87 4 -21 11 -37 16 -33 18 11 8 52 -32 132 -47 93 -46 116
3 176 16 20 32 35 34 33 17 -17 104 -602 104 -699 0 -27 -1 -28 -57 -28 -110
0 -385 -75 -513 -140 -57 -29 -130 -92 -151 -132 -18 -33 9 -19 51 26 50 54
160 112 290 154 184 60 313 82 361 64 l27 -11 7 -158 c5 -87 8 -191 8 -231 0
-48 4 -71 11 -69 20 7 2 434 -30 712 -18 158 -29 230 -88 546 -72 392 -80 467
-78 764 0 143 7 335 14 428 10 121 10 167 2 167 -6 0 -14 -28 -17 -67z"/>
<path d="M1536 3863 c-5 -18 -82 -427 -117 -627 -24 -136 -24 -175 1 -361 39
-296 22 -416 -90 -652 -29 -61 -45 -105 -39 -109 6 -3 12 -4 14 -3 11 13 107
236 125 294 32 99 39 308 15 466 -29 189 -25 244 49 640 36 195 66 358 66 362
0 15 -19 6 -24 -10z"/>
<path d="M9734 3483 c0 -54 -3 -120 -7 -148 l-7 -50 20 40 c10 22 22 59 26 83
9 57 -4 172 -19 172 -8 0 -12 -30 -13 -97z"/>
<path d="M10565 3369 c-72 -35 -112 -36 -310 -13 -117 14 -152 15 -215 5 -137
-22 -255 -94 -300 -182 -18 -34 -17 -49 2 -49 4 0 8 6 8 13 0 26 61 98 107
127 25 16 75 39 110 51 68 22 109 23 430 3 104 -6 171 6 217 41 38 29 9 31
-49 4z"/>
<path d="M10378 3274 c-16 -8 -28 -18 -28 -23 0 -19 14 -19 38 -1 40 32 105
26 189 -15 39 -19 75 -35 80 -35 5 0 28 -16 52 -36 23 -20 45 -33 49 -29 11
11 -44 51 -146 105 -81 44 -100 50 -150 50 -31 -1 -69 -8 -84 -16z"/>
<path d="M10018 3240 c-103 -16 -160 -49 -184 -107 -14 -31 -15 -32 -64 -26
-42 5 -50 3 -50 -11 0 -22 95 -22 181 0 148 38 261 -11 453 -195 97 -95 128
-139 154 -221 15 -49 22 -60 28 -46 12 30 -24 122 -74 188 -70 93 -223 222
-317 269 -71 35 -88 40 -155 40 -41 0 -88 -4 -103 -10 -37 -14 -36 -14 -30 9
13 50 121 90 248 90 122 0 258 -46 333 -114 28 -26 43 -33 48 -25 5 8 -5 23
-26 40 l-33 28 39 -10 c55 -16 122 -67 149 -114 12 -22 33 -70 45 -107 23 -73
47 -94 35 -31 -20 109 -79 202 -158 247 -50 29 -117 44 -117 26 0 -7 -16 -3
-42 13 -101 58 -244 84 -360 67z"/>
<path d="M2195 3067 c-3 -7 -4 -154 -3 -327 l3 -315 53 -3 52 -3 0 197 c0 109
2 195 5 193 2 -3 22 -87 44 -188 22 -100 43 -186 46 -192 8 -12 62 -12 69 0 3
5 22 85 42 177 20 93 40 176 45 184 5 9 9 -67 9 -178 l0 -193 53 3 52 3 0 325
0 325 -68 3 c-81 4 -70 23 -123 -220 -21 -98 -41 -178 -44 -178 -3 0 -23 80
-44 178 -53 242 -43 222 -121 222 -44 0 -67 -4 -70 -13z"/>
<path d="M2750 2750 l0 -330 165 0 165 0 0 55 0 55 -110 0 -110 0 0 85 0 85
86 0 85 0 -3 53 -3 52 -82 3 -83 3 0 79 0 79 108 3 107 3 3 53 3 52 -165 0
-166 0 0 -330z"/>
<path d="M3160 2750 l0 -330 125 0 c75 0 134 5 150 12 51 23 55 45 55 328 l0
262 -29 29 -29 29 -136 0 -136 0 0 -330z m215 0 l0 -215 -52 -3 -53 -3 0 221
0 221 53 -3 52 -3 0 -215z"/>
<path d="M3580 2750 l0 -330 55 0 55 0 0 330 0 330 -55 0 -55 0 0 -330z"/>
<path d="M3808 3051 l-33 -29 0 -271 0 -271 28 -27 c25 -25 35 -28 112 -32
103 -4 129 2 161 36 21 23 24 35 24 105 l0 79 -52 -3 -53 -3 -5 -50 -5 -50
-45 0 -45 0 0 215 0 215 45 0 45 0 5 -50 5 -50 53 -3 52 -3 0 81 c0 77 -2 83
-29 111 -29 28 -32 29 -130 29 -97 0 -102 -1 -133 -29z"/>
<path d="M4315 3068 c-7 -22 -135 -624 -135 -637 0 -7 20 -11 54 -11 l54 0 11
50 c6 28 11 58 11 65 0 12 16 15 75 15 83 0 75 7 93 -85 l8 -40 57 -3 c31 -2
57 -2 57 0 0 2 -31 149 -70 327 -38 177 -70 324 -70 327 0 2 -32 4 -70 4 -48
0 -72 -4 -75 -12z m95 -264 c11 -60 23 -119 25 -131 5 -22 2 -23 -45 -23 -27
0 -50 3 -50 8 -1 15 44 261 47 258 2 -2 12 -52 23 -112z"/>
<path d="M4670 2750 l0 -330 159 0 c171 0 171 0 171 55 0 53 -5 55 -116 55
l-104 0 0 275 0 275 -55 0 -55 0 0 -330z"/>
<path d="M5285 3067 c-3 -7 -4 -154 -3 -327 l3 -315 125 -3 c110 -2 129 0 157
17 42 26 56 79 51 194 -3 78 -6 91 -24 104 l-22 14 24 24 c22 22 24 32 24 115
0 100 -14 148 -51 174 -30 21 -277 24 -284 3z m219 -119 c3 -13 6 -39 6 -58 0
-71 -7 -80 -61 -80 l-49 0 0 80 0 80 49 0 c42 0 49 -3 55 -22z m-15 -257 c18
-11 26 -98 12 -133 -9 -25 -16 -28 -56 -28 l-45 0 0 85 0 85 38 0 c20 0 43 -4
51 -9z"/>
<path d="M5700 2750 l0 -330 160 0 160 0 0 55 0 55 -105 0 -105 0 0 275 0 275
-55 0 -55 0 0 -330z"/>
<path d="M6151 3064 c-46 -32 -51 -66 -51 -316 0 -314 7 -328 168 -328 90 0
132 14 154 53 9 15 14 87 16 241 4 262 0 299 -38 338 -27 27 -32 28 -127 28
-75 0 -104 -4 -122 -16z m177 -294 c1 -107 0 -205 -3 -217 -5 -20 -12 -23 -54
-23 -42 0 -49 3 -55 23 -8 29 -8 365 0 395 6 21 12 23 58 20 l51 -3 3 -195z"/>
<path d="M6571 3066 c-48 -26 -50 -44 -51 -318 l0 -258 29 -32 c29 -33 31 -33
130 -36 l101 -4 35 35 c34 34 35 38 35 111 l0 76 -54 0 -55 0 -3 -52 -3 -53
-38 -3 c-66 -6 -67 -3 -67 217 0 108 4 202 9 209 5 9 24 12 52 10 l44 -3 5
-50 5 -50 53 -3 52 -3 0 71 c0 81 -16 120 -55 138 -35 16 -193 15 -224 -2z"/>
<path d="M6935 3068 c-3 -7 -4 -155 -3 -328 l3 -315 55 0 55 0 5 105 c3 58 10
114 17 125 10 18 13 17 27 -20 9 -22 33 -78 54 -125 l38 -85 57 -3 c42 -2 57
0 57 10 0 7 -34 87 -74 176 l-74 164 69 144 c38 79 69 149 69 154 0 6 -25 10
-55 10 l-55 0 -63 -125 -62 -126 -5 123 -5 123 -53 3 c-36 2 -54 -1 -57 -10z"/>
<path d="M7409 3051 l-29 -29 0 -269 c0 -294 1 -299 59 -323 19 -7 63 -11 120
-9 83 4 93 6 118 32 25 24 28 36 31 107 l4 80 -56 0 -56 0 0 -42 c0 -60 -9
-70 -61 -66 l-44 3 0 215 0 215 50 0 50 0 3 -53 3 -53 52 3 52 3 0 78 c0 76
-1 80 -33 108 -31 28 -36 29 -133 29 -98 0 -101 -1 -130 -29z"/>
<path d="M7790 2750 l0 -330 55 0 54 0 3 138 3 137 53 3 52 3 0 -140 0 -141
55 0 55 0 0 330 0 330 -55 0 -55 0 0 -135 0 -135 -55 0 -55 0 0 135 0 135 -55
0 -55 0 0 -330z"/>
<path d="M8335 3068 c-7 -22 -135 -624 -135 -637 0 -7 20 -11 54 -11 l54 0 11
50 c6 28 11 58 11 65 0 12 16 15 75 15 83 0 75 7 93 -85 l8 -40 57 -3 c31 -2
57 -2 57 0 0 2 -31 149 -70 327 -38 177 -70 324 -70 327 0 2 -32 4 -70 4 -48
0 -72 -4 -75 -12z m95 -264 c11 -60 23 -119 25 -131 5 -22 2 -23 -45 -23 -27
0 -50 3 -50 8 -1 15 44 261 47 258 2 -2 12 -52 23 -112z"/>
<path d="M8690 2750 l0 -330 55 0 55 0 0 330 0 330 -55 0 -55 0 0 -330z"/>
<path d="M8890 2750 l0 -330 55 0 55 0 1 183 0 182 66 -182 66 -183 53 0 54 0
0 330 0 330 -55 0 -55 0 -2 -182 -3 -183 -65 182 -65 183 -52 0 -53 0 0 -330z"/>
<path d="M250 2902 c0 -13 190 -195 253 -241 31 -24 57 -48 57 -55 -1 -18 -30
-50 -96 -104 -70 -57 -114 -133 -114 -194 0 -49 17 -49 25 0 12 72 29 98 117
184 81 79 89 90 86 120 -2 27 -13 39 -58 71 -30 21 -99 80 -152 132 -89 87
-118 109 -118 87z"/>
<path d="M2058 1881 c6 -107 -16 -192 -74 -286 -61 -100 -66 -112 -75 -220 -5
-58 -10 -111 -12 -118 -1 -9 151 -13 726 -15 688 -2 727 -1 727 15 0 10 -5 37
-10 59 -5 23 -16 99 -25 170 -8 71 -26 183 -40 248 -13 66 -27 146 -31 178
l-7 58 -592 0 -592 0 5 -89z"/>
<path d="M3800 1956 c0 -28 93 -282 146 -400 63 -139 70 -153 80 -143 4 4 -12
47 -35 97 -51 110 -122 292 -151 389 -20 64 -40 93 -40 57z"/>
<path d="M4150 1933 c0 -49 10 -84 21 -77 10 6 12 74 3 98 -11 29 -24 17 -24
-21z"/>
<path d="M6910 1961 c8 -5 45 -11 82 -14 51 -5 69 -3 78 8 11 13 0 15 -81 15
-56 0 -88 -4 -79 -9z"/>
<path d="M7229 1948 c-15 -11 -62 -29 -105 -39 -69 -16 -93 -29 -94 -50 0 -4
20 -25 45 -48 24 -22 43 -41 41 -41 -2 0 -46 19 -97 43 l-94 42 -233 1 c-129
1 -259 5 -290 9 -234 27 -550 67 -564 71 -12 4 -18 0 -18 -10 0 -9 3 -16 8
-16 4 0 131 -17 282 -37 252 -33 297 -36 540 -37 l265 -2 104 -47 c58 -26 113
-47 123 -47 32 0 19 27 -34 73 -28 24 -48 49 -44 55 3 6 28 14 54 18 59 8 121
35 146 63 25 28 1 28 -35 -1z"/>
<path d="M7950 1728 c0 -134 -5 -295 -10 -358 -5 -63 -8 -116 -6 -118 6 -5
1048 -4 1053 2 3 3 -2 47 -11 98 -14 87 -86 592 -86 610 0 4 -211 8 -470 8
l-470 0 0 -242z"/>
<path d="M9229 1951 c14 -25 65 -69 129 -110 28 -18 52 -38 53 -45 0 -6 2 -24
2 -40 1 -16 7 -31 13 -33 18 -6 112 85 141 136 14 25 37 61 50 79 30 40 6 46
-26 6 -22 -29 -28 -25 -11 7 8 15 7 19 -3 19 -8 0 -20 -13 -27 -30 -13 -31
-82 -100 -100 -100 -6 0 -10 -7 -10 -15 0 -8 2 -15 5 -15 17 0 66 33 89 60 14
18 26 27 26 21 0 -6 -27 -39 -60 -73 -54 -58 -59 -61 -60 -37 0 29 -19 48
-105 107 -33 23 -66 51 -73 62 -16 27 -47 28 -33 1z"/>
<path d="M4800 1827 c0 -7 5 -18 11 -24 18 -18 2 -43 -26 -43 -14 0 -25 -5
-25 -10 0 -17 24 -22 53 -11 29 11 36 45 17 82 -12 22 -30 25 -30 6z"/>
<path d="M9605 1700 l-80 -80 50 -93 c27 -50 66 -135 86 -187 21 -52 42 -96
48 -98 6 -2 11 1 11 6 0 16 -78 199 -122 284 l-40 80 71 72 c64 65 85 96 63
96 -4 0 -43 -36 -87 -80z"/>
<path d="M5907 1713 c-6 -6 -10 -113 -4 -113 1 0 40 -7 87 -15 47 -9 114 -20
150 -25 557 -82 756 -108 764 -99 3 2 8 27 11 55 6 42 4 52 -9 57 -19 8 -253
47 -491 82 -457 68 -494 73 -508 58z"/>
<path d="M1215 1463 c21 -55 65 -193 65 -207 0 -9 7 -16 15 -16 18 0 19 -8 -4
76 -26 91 -57 164 -72 164 -7 0 -8 -7 -4 -17z"/>
<path d="M4130 1388 c-43 -68 -80 -133 -80 -140 0 -22 21 -2 52 50 19 31 42
69 52 85 14 21 15 27 5 27 -8 0 -21 -10 -29 -22z"/>
</g>
</svg>
